<svg id="Layer_1" data-name="Layer 1" xmlns="http://www.w3.org/2000/svg" viewBox="0 0 307.24 346.57"><defs><style>.cls-1{fill:#00c200;}.cls-2{fill:#070;}</style></defs><title>untitled</title><path class="cls-1" d="M863.06,561.2l40.56,1.9-205-236.39L596.38,622.45l39.08-18,13.76-40.31.08,0L673.87,493v0l11.67-33.72,24.81-71.76L760.1,444.8l23.37,27L833,528.89l28,32.19Z" transform="translate(-596.38 -326.71)"/><rect class="cls-1" x="658.07" y="451.63" width="136.52" height="30.93" transform="translate(-671.8 -180.44) rotate(-10.94)"/><polygon class="cls-2" points="108.14 247.07 39.09 277.79 45.7 258.39 118.68 226.54 137.78 329.9 193.03 319.23 173.93 215.95 251.75 219.58 264.59 234.34 191.29 231.01 209.69 330.47 126.49 346.57 108.14 247.07"/></svg>