<?xml version="1.0" encoding="utf-8"?>
<!-- Generator: Adobe Illustrator 25.2.0, SVG Export Plug-In . SVG Version: 6.00 Build 0)  -->
<svg version="1.1" id="Layer_1" xmlns="http://www.w3.org/2000/svg" xmlns:xlink="http://www.w3.org/1999/xlink" x="0px" y="0px"
	 viewBox="0 0 5000 5000" style="enable-background:new 0 0 5000 5000;" xml:space="preserve">
<style type="text/css">
	.st0{fill:url(#SVGID_1_);}
	.st1{fill:url(#SVGID_2_);}
	.st2{fill:#BCBEC0;}
	.st3{fill:url(#SVGID_3_);}
	.st4{fill:url(#SVGID_4_);}
	.st5{fill:url(#SVGID_5_);}
	.st6{fill:url(#SVGID_6_);}
	.st7{fill:url(#SVGID_7_);}
	.st8{fill:url(#SVGID_8_);}
	.st9{fill:#00C200;}
	.st10{fill:url(#SVGID_9_);}
	.st11{fill:url(#SVGID_10_);}
	.st12{fill:url(#SVGID_11_);}
	.st13{fill:url(#SVGID_12_);}
	.st14{fill:url(#SVGID_13_);}
	.st15{fill:url(#SVGID_14_);}
	.st16{fill:url(#SVGID_15_);}
	.st17{fill:url(#SVGID_16_);}
</style>
<g>
	<linearGradient id="SVGID_1_" gradientUnits="userSpaceOnUse" x1="3117.0569" y1="2299.1311" x2="2193.9314" y2="3459.4231">
		<stop  offset="0" style="stop-color:#2AEB6F"/>
		<stop  offset="1" style="stop-color:#007700"/>
	</linearGradient>
	<path class="st0" d="M2793.13,3116.22h-572.56c-27.68,0-50.11-22.44-50.11-50.11s22.43-50.11,50.11-50.11h572.56
		c27.68,0,50.11,22.44,50.11,50.11S2820.81,3116.22,2793.13,3116.22z"/>
	<linearGradient id="SVGID_2_" gradientUnits="userSpaceOnUse" x1="2694.636" y1="1963.054" x2="1771.5105" y2="3123.3462">
		<stop  offset="0" style="stop-color:#2AEB6F"/>
		<stop  offset="1" style="stop-color:#007700"/>
	</linearGradient>
	<path class="st1" d="M2053.08,3116.23c-150.66,0-289.52-75.6-371.45-202.24c-15.03-23.23-8.38-54.25,14.85-69.29
		c23.23-15.04,54.26-8.39,69.29,14.85c63.38,97.96,170.79,156.45,287.3,156.45c27.68,0,50.11,22.44,50.11,50.11
		S2080.75,3116.23,2053.08,3116.23z"/>
	<path class="st2" d="M2881.37,2341.75c-9.44,0-17.84-6.69-19.67-16.31c-24.91-131.07-140.06-226.2-273.8-226.2
		c-9.48,0-19.03,0.48-28.37,1.44c-11.01,1.09-20.85-6.89-21.98-17.91c-1.12-11.01,6.89-20.85,17.91-21.98
		c10.69-1.09,21.6-1.64,32.44-1.64c152.97,0,284.69,108.84,313.19,258.8c2.07,10.88-5.07,21.37-15.95,23.44
		C2883.88,2341.63,2882.61,2341.75,2881.37,2341.75z"/>
	<linearGradient id="SVGID_3_" gradientUnits="userSpaceOnUse" x1="2975.5007" y1="2186.5093" x2="2052.3752" y2="3346.8015">
		<stop  offset="0" style="stop-color:#2AEB6F"/>
		<stop  offset="1" style="stop-color:#007700"/>
	</linearGradient>
	<path class="st3" d="M3122.68,3116.23c-27.68,0-50.11-22.44-50.11-50.11s22.43-50.11,50.11-50.11
		c188.55,0,341.95-153.37,341.95-341.9c0-188.55-153.4-341.95-341.95-341.95c-29.1,0-58.01,3.68-85.93,10.92
		c-13.42,3.48-27.68,1.25-39.4-6.17c-11.72-7.42-19.83-19.36-22.42-32.98c-35.23-185.38-198-319.94-387.03-319.94
		s-351.8,134.55-387.03,319.94c-2.59,13.62-10.7,25.55-22.41,32.97c-11.71,7.42-25.97,9.65-39.39,6.18
		c-27.98-7.25-56.91-10.93-86-10.93c-140.49,0-265.08,84.23-317.4,214.59c-10.3,25.69-39.49,38.15-65.17,27.84
		c-25.68-10.31-38.15-39.48-27.84-65.17c67.65-168.56,228.74-277.48,410.4-277.48c20.53,0,41.02,1.42,61.27,4.24
		c61.73-206.93,253.45-352.4,473.55-352.4c220.09,0,411.8,145.48,473.55,352.39c20.23-2.81,40.7-4.23,61.23-4.23
		c243.81,0,442.17,198.36,442.17,442.17C3564.85,2917.89,3366.49,3116.23,3122.68,3116.23z"/>
	<linearGradient id="SVGID_4_" gradientUnits="userSpaceOnUse" x1="2586.0508" y1="1876.6638" x2="1662.9252" y2="3036.9558">
		<stop  offset="0" style="stop-color:#2AEB6F"/>
		<stop  offset="1" style="stop-color:#007700"/>
	</linearGradient>
	<path class="st4" d="M2169.77,2578.22c-20.55,0-39.82-12.74-47.16-33.19c-19.21-53.5-28.95-109.7-28.95-167.03
		c0-31.19,2.93-62.41,8.71-92.8c5.17-27.18,31.39-45.04,58.59-39.87c27.19,5.17,45.04,31.4,39.87,58.59
		c-4.6,24.23-6.94,49.15-6.94,74.07c0,45.75,7.76,90.56,23.05,133.16c9.35,26.05-4.18,54.74-30.23,64.1
		C2181.1,2577.26,2175.39,2578.22,2169.77,2578.22z"/>
	<linearGradient id="SVGID_5_" gradientUnits="userSpaceOnUse" x1="2836.0681" y1="2075.5771" x2="1912.9426" y2="3235.8691">
		<stop  offset="0" style="stop-color:#2AEB6F"/>
		<stop  offset="1" style="stop-color:#007700"/>
	</linearGradient>
	<path class="st5" d="M3181.49,2757.53H1485.26c-27.68,0-50.11-22.44-50.11-50.11c0-27.67,22.43-50.11,50.11-50.11h1696.23
		c27.68,0,50.11,22.44,50.11,50.11C3231.6,2735.09,3209.17,2757.53,3181.49,2757.53z"/>
	<linearGradient id="SVGID_6_" gradientUnits="userSpaceOnUse" x1="2740.2935" y1="1999.379" x2="1817.168" y2="3159.6711">
		<stop  offset="0" style="stop-color:#2AEB6F"/>
		<stop  offset="1" style="stop-color:#007700"/>
	</linearGradient>
	<path class="st6" d="M2444.11,2936.87h-819.62c-27.68,0-50.11-22.44-50.11-50.11s22.43-50.11,50.11-50.11h819.62
		c27.68,0,50.11,22.44,50.11,50.11S2471.78,2936.87,2444.11,2936.87z"/>
	<linearGradient id="SVGID_7_" gradientUnits="userSpaceOnUse" x1="2428.0522" y1="1750.9607" x2="1504.9268" y2="2911.2527">
		<stop  offset="0" style="stop-color:#2AEB6F"/>
		<stop  offset="1" style="stop-color:#007700"/>
	</linearGradient>
	<path class="st7" d="M1930.37,2578.19h-241.19c-27.68,0-50.11-22.44-50.11-50.11c0-27.67,22.43-50.11,50.11-50.11h241.19
		c27.68,0,50.11,22.44,50.11,50.11C1980.48,2555.76,1958.05,2578.19,1930.37,2578.19z"/>
	<linearGradient id="SVGID_8_" gradientUnits="userSpaceOnUse" x1="3233.5532" y1="2391.8152" x2="2310.4277" y2="3552.1074">
		<stop  offset="0" style="stop-color:#2AEB6F"/>
		<stop  offset="1" style="stop-color:#007700"/>
	</linearGradient>
	<path class="st8" d="M2959.8,2979.22c-12.82,0-25.65-4.89-35.43-14.68c-19.57-19.57-19.57-51.3,0-70.87l186.26-186.25
		l-186.26-186.25c-19.57-19.57-19.57-51.3,0-70.87c19.57-19.56,51.3-19.56,70.87,0l221.69,221.69c19.57,19.57,19.57,51.3,0,70.87
		l-221.69,221.69C2985.45,2974.32,2972.63,2979.22,2959.8,2979.22z"/>
</g>
</svg>
